 <svg version="1.0" xmlns="http://www.w3.org/2000/svg" width="700.000000pt" height="41.000000pt" viewBox="0 0 700.000000 41.000000" preserveAspectRatio="xMidYMid meet">
<metadata>
Created by potrace 1.12, written by Peter Selinger 2001-2015
</metadata>
<g transform="translate(0.000000,41.000000) scale(0.100000,-0.100000)" fill="#000000" stroke="none">
<path d="M310 380 c0 -17 7 -20 40 -20 l40 0 0 -180 0 -180 40 0 40 0 0 180 0
180 40 0 c33 0 40 3 40 20 0 19 -7 20 -120 20 -113 0 -120 -1 -120 -20z"></path>
<path d="M590 200 l0 -200 40 0 40 0 0 80 0 80 45 0 45 0 0 -80 0 -80 40 0 41
0 -3 77 c-3 68 -6 78 -23 83 -27 7 -26 34 3 38 21 3 22 8 22 82 0 74 -1 79
-22 82 -13 2 -23 10 -23 18 0 12 -19 16 -102 18 l-103 3 0 -201z m170 80 l0
-80 -45 0 -45 0 0 80 0 80 45 0 45 0 0 -80z"></path>
<path d="M960 380 c0 -13 -7 -20 -20 -20 -13 0 -20 -7 -20 -20 0 -13 -7 -20
-20 -20 -19 0 -20 -7 -20 -160 l0 -160 40 0 40 0 0 100 0 100 65 0 65 0 0
-100 0 -100 40 0 40 0 0 160 c0 156 -1 160 -21 160 -12 0 -23 8 -26 20 -3 11
-14 20 -24 20 -12 0 -19 7 -19 20 0 18 -7 20 -60 20 -53 0 -60 -2 -60 -20z
m83 -40 c3 -12 14 -20 26 -20 18 0 21 -6 21 -40 l0 -40 -65 0 -65 0 0 40 c0
33 3 40 20 40 13 0 20 7 20 20 0 13 7 20 19 20 10 0 21 -9 24 -20z"></path>
<path d="M1250 380 c0 -13 -7 -20 -20 -20 -18 0 -20 -7 -20 -60 0 -53 2 -60
20 -60 13 0 20 -7 20 -20 0 -17 7 -20 40 -20 33 0 40 -3 40 -20 0 -13 7 -20
20 -20 18 0 20 -7 20 -60 l0 -60 -40 0 c-33 0 -40 3 -40 20 0 17 -7 20 -40 20
-33 0 -40 -3 -40 -20 0 -13 7 -20 20 -20 13 0 20 -7 20 -20 0 -18 7 -20 80
-20 73 0 80 2 80 20 0 13 7 20 20 20 18 0 20 7 20 80 0 73 -2 80 -20 80 -13 0
-20 7 -20 20 0 17 -7 20 -40 20 -33 0 -40 3 -40 20 0 13 -7 20 -20 20 -17 0
-20 7 -20 40 l0 40 40 0 c33 0 40 -3 40 -20 0 -17 7 -20 40 -20 33 0 40 3 40
20 0 13 -7 20 -20 20 -13 0 -20 7 -20 20 0 18 -7 20 -80 20 -73 0 -80 -2 -80
-20z"></path>
<path d="M1500 200 l0 -200 40 0 40 0 0 100 0 100 40 0 40 0 0 -100 0 -100 40
0 40 0 0 200 0 200 -40 0 -40 0 0 -80 0 -80 -40 0 -40 0 0 80 0 80 -40 0 -40
0 0 -200z"></path>
<path d="M3211 353 c-29 -46 -29 -48 -11 -55 11 -4 20 -12 20 -18 0 -22 16 -8
43 36 15 26 26 48 23 51 -2 2 -14 -14 -26 -36 -20 -34 -25 -38 -41 -28 -17 11
-17 13 3 49 33 59 55 51 104 -35 28 -48 38 -74 31 -79 -16 -9 -8 -14 34 -22
35 -6 36 -5 52 34 14 37 14 39 -3 37 -13 -1 -29 15 -52 53 l-33 55 -57 3 -57
3 -30 -48z"></path>
<path d="M3650 380 c0 -13 7 -20 20 -20 19 0 20 -7 20 -160 0 -153 -1 -160
-20 -160 -13 0 -20 -7 -20 -20 0 -18 7 -20 80 -20 73 0 80 2 80 20 0 13 -7 20
-20 20 -19 0 -20 7 -20 160 0 153 1 160 20 160 13 0 20 7 20 20 0 18 -7 20
-80 20 -73 0 -80 -2 -80 -20z"></path>
<path d="M3850 200 l0 -200 40 0 40 0 0 80 0 80 45 0 45 0 0 -80 0 -80 40 0
40 0 0 76 c0 67 -2 76 -20 81 -11 3 -20 14 -20 24 0 12 7 19 20 19 18 0 20 7
20 80 0 73 -2 80 -20 80 -13 0 -20 7 -20 20 0 19 -7 20 -105 20 l-105 0 0
-200z m170 80 l0 -80 -45 0 -45 0 0 80 0 80 45 0 45 0 0 -80z"></path>
<path d="M4180 380 c0 -13 -7 -20 -20 -20 -19 0 -20 -7 -20 -160 0 -153 1
-160 20 -160 13 0 20 -7 20 -20 0 -18 7 -20 79 -20 70 0 79 2 84 20 3 11 12
20 21 20 9 0 16 8 16 20 0 29 -69 29 -77 0 -4 -16 -14 -20 -44 -20 l-39 0 0
160 0 160 39 0 c30 0 40 -4 44 -20 7 -28 77 -29 77 -1 0 10 -9 21 -20 24 -11
3 -20 12 -20 21 0 13 -13 16 -80 16 -73 0 -80 -2 -80 -20z"></path>
<path d="M20 340 c0 -13 7 -20 20 -20 13 0 20 -7 20 -20 0 -13 7 -20 20 -20
13 0 20 -7 20 -20 0 -13 7 -20 20 -20 13 0 20 -7 20 -20 0 -13 -7 -20 -20 -20
-13 0 -20 -7 -20 -20 0 -13 -7 -20 -20 -20 -13 0 -20 -7 -20 -20 0 -13 -7 -20
-20 -20 -13 0 -20 -7 -20 -20 0 -18 7 -20 60 -20 53 0 60 2 60 20 0 13 7 20
20 20 13 0 20 7 20 20 0 13 7 20 20 20 13 0 20 7 20 20 0 13 7 20 20 20 13 0
20 7 20 20 0 13 -7 20 -20 20 -13 0 -20 7 -20 20 0 13 -7 20 -20 20 -13 0 -20
7 -20 20 0 13 -7 20 -20 20 -13 0 -20 7 -20 20 0 18 -7 20 -60 20 -53 0 -60
-2 -60 -20z"></path>
<path d="M3140 271 c-21 -6 -22 -8 -8 -14 16 -5 14 -13 -18 -66 l-36 -60 27
-45 c27 -46 27 -46 83 -46 42 0 53 3 44 12 -7 7 -8 17 -1 30 9 16 5 18 -41 18
-27 0 -50 2 -50 5 0 17 64 105 77 105 10 0 13 5 8 18 -4 9 -10 25 -12 35 -6
18 -29 20 -73 8z m76 -201 c0 -18 -6 -21 -41 -18 -29 2 -41 8 -43 21 -3 14 4
17 40 17 37 0 44 -3 44 -20z"></path>
<path d="M1780 140 c0 -95 1 -100 21 -100 12 0 23 -8 26 -20 7 -26 29 -26 36
0 3 11 12 20 20 20 8 0 17 8 19 18 3 10 13 19 22 19 9 0 16 -8 16 -19 0 -12 7
-18 21 -18 12 0 23 -8 26 -20 7 -27 43 -27 43 0 0 13 7 20 20 20 19 0 20 7 20
100 l0 100 -40 0 -40 0 0 -60 c0 -57 -1 -60 -25 -60 -18 0 -25 5 -25 20 0 11
-7 20 -15 20 -8 0 -15 -9 -15 -20 0 -15 -7 -20 -25 -20 -24 0 -25 3 -25 60 l0
60 -40 0 -40 0 0 -100z"></path>
<path d="M2150 220 c0 -13 -7 -20 -20 -20 -13 0 -20 -7 -20 -20 0 -13 7 -20
20 -20 13 0 20 -7 20 -20 0 -13 -7 -20 -20 -20 -17 0 -20 -7 -20 -40 0 -33 3
-40 20 -40 13 0 20 -7 20 -20 0 -19 7 -20 100 -20 l100 0 0 100 c0 93 -1 100
-20 100 -13 0 -20 7 -20 20 0 18 -7 20 -80 20 -73 0 -80 -2 -80 -20z m120 -40
c0 -17 -7 -20 -40 -20 -33 0 -40 3 -40 20 0 17 7 20 40 20 33 0 40 -3 40 -20z
m0 -100 l0 -40 -40 0 -40 0 0 40 0 40 40 0 40 0 0 -40z"></path>
<path d="M2400 120 l0 -120 40 0 40 0 0 80 c0 73 2 80 20 80 13 0 20 7 20 20
0 17 7 20 40 20 33 0 40 3 40 20 0 17 -7 20 -40 20 -33 0 -40 -3 -40 -20 0
-13 -7 -20 -20 -20 -13 0 -20 7 -20 20 0 17 -7 20 -40 20 l-40 0 0 -120z"></path>
<path d="M2680 220 c0 -13 -7 -20 -20 -20 -18 0 -20 -7 -20 -80 0 -73 2 -80
20 -80 13 0 20 -7 20 -20 0 -19 7 -20 100 -20 94 0 100 1 100 21 0 19 -5 20
-77 18 -73 -2 -78 -1 -81 19 -3 21 0 22 77 22 l81 0 0 60 c0 44 -4 60 -14 60
-7 0 -16 9 -19 20 -5 18 -14 20 -86 20 -74 0 -81 -2 -81 -20z m120 -60 l0 -40
-40 0 -40 0 0 40 0 40 40 0 40 0 0 -40z"></path>
<path d="M3440 210 c0 -5 -9 -10 -20 -10 -11 0 -20 -2 -20 -5 0 -3 9 -23 20
-45 11 -22 20 -42 20 -45 0 -3 -31 -5 -70 -5 -60 0 -70 3 -70 18 -1 13 -6 11
-25 -11 -30 -33 -30 -45 -6 -74 22 -27 31 -29 31 -8 0 12 15 15 75 15 l74 0
26 45 27 45 -23 45 c-21 42 -39 58 -39 35z m32 -44 c14 -28 14 -37 4 -51 -11
-16 -15 -14 -34 19 -23 40 -28 61 -12 51 6 -3 10 -1 10 4 0 22 17 10 32 -23z"></path>
</g>
</svg>