<?xml version="1.0" encoding="UTF-8" standalone="no"?>
<!DOCTYPE svg PUBLIC "-//W3C//DTD SVG 20010904//EN"
              "http://www.w3.org/TR/2001/REC-SVG-20010904/DTD/svg10.dtd">

<svg xmlns="http://www.w3.org/2000/svg"
     width="17.8444in" height="1.04444in"
     viewBox="0 0 1606 94">
  <path id="Imported Path"
        fill="none" stroke="black" stroke-width="1"
        d="M 1023.30,32.00
           C 1023.30,32.00 1030.80,32.00 1030.80,32.00
             1030.80,32.00 1030.80,34.30 1030.80,34.30
             1032.53,32.77 1034.60,32.00 1037.00,32.00
             1037.00,32.00 1037.60,32.00 1037.60,32.00
             1040.48,32.00 1042.85,32.51 1044.69,33.53
             1045.80,34.13 1046.76,34.98 1047.50,36.00
             1049.33,33.71 1052.09,32.20 1055.20,32.03
             1055.52,32.01 1055.85,32.00 1056.18,32.00
             1056.19,32.00 1056.19,32.00 1056.20,32.00
             1056.20,32.00 1056.80,32.00 1056.80,32.00
             1056.84,32.00 1056.88,32.00 1056.93,32.00
             1058.02,32.00 1059.10,32.09 1060.14,32.27
             1062.55,32.70 1064.44,33.65 1065.80,35.10
             1067.51,36.92 1068.46,40.00 1068.66,44.32
             1068.69,44.89 1068.70,45.48 1068.70,46.08
             1068.70,46.08 1068.70,46.09 1068.70,46.10
             1068.70,46.10 1068.70,82.00 1068.70,82.00
             1068.70,82.00 1060.70,82.00 1060.70,82.00
             1060.70,82.00 1060.70,46.00 1060.70,46.00
             1060.70,43.27 1060.42,41.37 1059.85,40.30
             1059.28,39.23 1058.00,38.70 1056.00,38.70
             1056.00,38.70 1055.40,38.70 1055.40,38.70
             1054.03,38.70 1052.96,39.02 1052.17,39.66
             1051.80,39.96 1051.48,40.33 1051.25,40.75
             1050.54,42.01 1050.11,43.45 1050.02,44.98
             1050.01,45.08 1050.00,45.19 1050.00,45.30
             1050.00,45.30 1050.00,82.00 1050.00,82.00
             1050.00,82.00 1042.00,82.00 1042.00,82.00
             1042.00,82.00 1042.00,46.00 1042.00,46.00
             1042.00,45.98 1042.00,45.96 1042.00,45.93
             1042.00,45.32 1041.98,44.72 1041.94,44.12
             1041.86,42.93 1041.69,41.96 1041.44,41.21
             1041.34,40.87 1041.19,40.55 1041.00,40.25
             1040.33,39.22 1039.13,38.70 1037.40,38.70
             1037.40,38.70 1036.80,38.70 1036.80,38.70
             1036.78,38.70 1036.76,38.70 1036.74,38.70
             1036.24,38.70 1035.75,38.75 1035.27,38.83
             1034.07,39.07 1033.18,39.61 1032.60,40.45
             1031.80,41.62 1031.37,42.93 1031.30,44.40
             1031.30,44.40 1031.30,82.00 1031.30,82.00
             1031.30,82.00 1023.30,82.00 1023.30,82.00
             1023.30,82.00 1023.30,32.00 1023.30,32.00 Z
           M 1347.30,32.00
           C 1347.30,32.00 1354.80,32.00 1354.80,32.00
             1354.80,32.00 1354.80,34.30 1354.80,34.30
             1356.53,32.77 1358.60,32.00 1361.00,32.00
             1361.00,32.00 1361.60,32.00 1361.60,32.00
             1364.48,32.00 1366.85,32.51 1368.69,33.53
             1369.80,34.13 1370.76,34.98 1371.50,36.00
             1373.33,33.71 1376.09,32.20 1379.20,32.03
             1379.52,32.01 1379.85,32.00 1380.18,32.00
             1380.19,32.00 1380.19,32.00 1380.20,32.00
             1380.20,32.00 1380.80,32.00 1380.80,32.00
             1380.84,32.00 1380.88,32.00 1380.93,32.00
             1382.02,32.00 1383.10,32.09 1384.14,32.27
             1386.55,32.70 1388.44,33.65 1389.80,35.10
             1391.51,36.92 1392.46,40.00 1392.66,44.32
             1392.69,44.89 1392.70,45.48 1392.70,46.08
             1392.70,46.08 1392.70,46.09 1392.70,46.10
             1392.70,46.10 1392.70,82.00 1392.70,82.00
             1392.70,82.00 1384.70,82.00 1384.70,82.00
             1384.70,82.00 1384.70,46.00 1384.70,46.00
             1384.70,43.27 1384.42,41.37 1383.85,40.30
             1383.28,39.23 1382.00,38.70 1380.00,38.70
             1380.00,38.70 1379.40,38.70 1379.40,38.70
             1378.03,38.70 1376.96,39.02 1376.17,39.66
             1375.80,39.96 1375.48,40.33 1375.25,40.75
             1374.54,42.01 1374.11,43.45 1374.02,44.98
             1374.01,45.08 1374.00,45.19 1374.00,45.30
             1374.00,45.30 1374.00,82.00 1374.00,82.00
             1374.00,82.00 1366.00,82.00 1366.00,82.00
             1366.00,82.00 1366.00,46.00 1366.00,46.00
             1366.00,45.98 1366.00,45.96 1366.00,45.93
             1366.00,45.32 1365.98,44.72 1365.94,44.12
             1365.86,42.93 1365.69,41.96 1365.44,41.21
             1365.34,40.87 1365.19,40.55 1365.00,40.25
             1364.33,39.22 1363.13,38.70 1361.40,38.70
             1361.40,38.70 1360.80,38.70 1360.80,38.70
             1360.78,38.70 1360.76,38.70 1360.74,38.70
             1360.24,38.70 1359.75,38.75 1359.27,38.83
             1358.07,39.07 1357.18,39.61 1356.60,40.45
             1355.80,41.62 1355.37,42.93 1355.30,44.40
             1355.30,44.40 1355.30,82.00 1355.30,82.00
             1355.30,82.00 1347.30,82.00 1347.30,82.00
             1347.30,82.00 1347.30,32.00 1347.30,32.00 Z
           M 18.50,53.00
           C 18.50,53.00 8.70,53.00 8.70,53.00
             8.70,53.00 8.70,82.00 8.70,82.00
             8.70,82.00 0.00,82.00 0.00,82.00
             0.00,82.00 0.00,12.00 0.00,12.00
             0.00,12.00 18.80,12.00 18.80,12.00
             18.86,12.00 18.92,12.00 18.97,12.00
             20.54,12.00 22.09,12.12 23.59,12.34
             26.95,12.88 29.63,14.01 31.65,15.75
             33.19,17.10 34.36,18.86 35.01,20.86
             35.67,22.78 36.00,25.03 36.00,27.60
             36.00,27.60 36.00,37.20 36.00,37.20
             36.00,42.01 34.78,45.67 32.33,48.17
             30.87,49.62 29.05,50.71 27.01,51.30
             27.01,51.30 40.90,82.00 40.90,82.00
             40.90,82.00 31.40,82.00 31.40,82.00
             31.40,82.00 18.50,53.00 18.50,53.00 Z
           M 379.70,32.00
           C 379.70,32.00 387.70,32.00 387.70,32.00
             387.70,32.00 387.70,34.40 387.70,34.40
             388.95,33.44 390.41,32.75 392.01,32.40
             393.14,32.13 394.37,32.00 395.70,32.00
             395.70,32.00 400.30,32.00 400.30,32.00
             400.35,32.00 400.41,32.00 400.46,32.00
             401.92,32.00 403.35,32.11 404.74,32.33
             407.96,32.86 410.50,34.02 412.35,35.80
             414.98,38.33 416.30,42.40 416.30,48.00
             416.30,48.00 416.30,82.00 416.30,82.00
             416.30,82.00 407.80,82.00 407.80,82.00
             407.80,82.00 407.80,46.00 407.80,46.00
             407.80,45.98 407.80,45.96 407.80,45.93
             407.80,45.27 407.72,44.62 407.58,44.00
             407.33,42.94 406.79,42.00 406.05,41.25
             405.25,40.46 404.21,39.89 403.06,39.67
             402.51,39.56 401.94,39.50 401.36,39.50
             401.34,39.50 401.32,39.50 401.30,39.50
             401.30,39.50 394.70,39.50 394.70,39.50
             392.50,39.50 390.87,40.08 389.80,41.25
             389.41,41.67 389.07,42.14 388.79,42.65
             388.42,43.35 388.20,44.15 388.20,45.00
             388.20,45.00 388.20,82.00 388.20,82.00
             388.20,82.00 379.70,82.00 379.70,82.00
             379.70,82.00 379.70,32.00 379.70,32.00 Z
           M 1459.70,32.00
           C 1459.70,32.00 1467.70,32.00 1467.70,32.00
             1467.70,32.00 1467.70,34.40 1467.70,34.40
             1468.95,33.44 1470.41,32.75 1472.01,32.40
             1473.14,32.13 1474.37,32.00 1475.70,32.00
             1475.70,32.00 1480.30,32.00 1480.30,32.00
             1480.35,32.00 1480.41,32.00 1480.46,32.00
             1481.92,32.00 1483.35,32.11 1484.74,32.33
             1487.96,32.86 1490.50,34.02 1492.35,35.80
             1494.98,38.33 1496.30,42.40 1496.30,48.00
             1496.30,48.00 1496.30,82.00 1496.30,82.00
             1496.30,82.00 1487.80,82.00 1487.80,82.00
             1487.80,82.00 1487.80,46.00 1487.80,46.00
             1487.80,45.98 1487.80,45.96 1487.80,45.93
             1487.80,45.27 1487.72,44.62 1487.58,44.00
             1487.33,42.94 1486.79,42.00 1486.05,41.25
             1485.25,40.46 1484.21,39.89 1483.06,39.67
             1482.51,39.56 1481.94,39.50 1481.36,39.50
             1481.34,39.50 1481.32,39.50 1481.30,39.50
             1481.30,39.50 1474.70,39.50 1474.70,39.50
             1472.50,39.50 1470.87,40.08 1469.80,41.25
             1469.41,41.67 1469.07,42.14 1468.79,42.65
             1468.42,43.35 1468.20,44.15 1468.20,45.00
             1468.20,45.00 1468.20,82.00 1468.20,82.00
             1468.20,82.00 1459.70,82.00 1459.70,82.00
             1459.70,82.00 1459.70,32.00 1459.70,32.00 Z
           M 507.70,82.00
           C 507.70,82.00 504.30,82.00 504.30,82.00
             504.25,82.00 504.19,82.00 504.14,82.00
             502.68,82.00 501.25,81.89 499.86,81.67
             496.64,81.14 494.10,79.98 492.25,78.20
             489.62,75.67 488.30,71.60 488.30,66.00
             488.30,66.00 488.30,32.00 488.30,32.00
             488.30,32.00 496.80,32.00 496.80,32.00
             496.80,32.00 496.80,68.00 496.80,68.00
             496.80,68.02 496.80,68.04 496.80,68.07
             496.80,68.73 496.88,69.38 497.02,70.00
             497.27,71.06 497.81,72.00 498.55,72.75
             499.35,73.54 500.39,74.11 501.54,74.33
             502.09,74.44 502.66,74.50 503.24,74.50
             503.26,74.50 503.28,74.50 503.30,74.50
             503.30,74.50 508.70,74.50 508.70,74.50
             508.72,74.50 508.74,74.50 508.77,74.50
             509.34,74.50 509.91,74.45 510.45,74.36
             511.72,74.14 512.72,73.65 513.45,72.90
             513.92,72.42 514.32,71.87 514.63,71.26
             514.94,70.67 515.13,70.00 515.20,69.30
             515.20,69.30 515.20,32.00 515.20,32.00
             515.20,32.00 523.70,32.00 523.70,32.00
             523.70,32.00 523.70,82.00 523.70,82.00
             523.70,82.00 515.70,82.00 515.70,82.00
             515.70,82.00 515.70,79.70 515.70,79.70
             514.15,80.77 512.36,81.50 510.41,81.79
             509.56,81.93 508.67,82.00 507.77,82.00
             507.74,82.00 507.72,82.00 507.70,82.00
             507.70,82.00 507.70,82.00 507.70,82.00 Z
           M 165.90,65.00
           C 165.90,65.00 165.90,29.00 165.90,29.00
             165.90,24.98 166.68,21.67 168.24,19.07
             168.87,18.02 169.65,17.07 170.55,16.25
             173.65,13.42 178.10,12.00 183.90,12.00
             183.90,12.00 198.10,12.00 198.10,12.00
             198.10,12.00 198.10,19.60 198.10,19.60
             198.10,19.60 182.90,19.60 182.90,19.60
             182.87,19.60 182.84,19.60 182.81,19.60
             181.92,19.60 181.05,19.72 180.22,19.93
             178.96,20.27 177.82,20.92 176.90,21.80
             176.14,22.51 175.53,23.37 175.12,24.35
             174.79,25.17 174.60,26.08 174.60,27.03
             174.60,27.05 174.60,27.08 174.60,27.10
             174.60,27.10 174.60,66.90 174.60,66.90
             174.60,66.93 174.60,66.96 174.60,66.99
             174.60,68.98 175.43,70.78 176.76,72.06
             176.80,72.11 176.85,72.15 176.90,72.20
             178.05,73.29 179.53,74.04 181.18,74.27
             181.72,74.36 182.28,74.40 182.86,74.40
             182.87,74.40 182.89,74.40 182.90,74.40
             182.90,74.40 198.10,74.40 198.10,74.40
             198.10,74.40 198.10,82.00 198.10,82.00
             198.10,82.00 183.90,82.00 183.90,82.00
             179.78,82.00 176.34,81.28 173.58,79.85
             172.48,79.29 171.46,78.58 170.55,77.75
             168.80,76.12 167.48,74.02 166.80,71.66
             166.35,70.20 166.07,68.58 165.96,66.82
             165.92,66.23 165.90,65.63 165.90,65.03
             165.90,65.02 165.90,65.01 165.90,65.00
             165.90,65.00 165.90,65.00 165.90,65.00 Z
           M 330.60,74.70
           C 330.60,74.70 339.60,74.70 339.60,74.70
             339.60,74.70 339.60,19.30 339.60,19.30
             339.60,19.30 330.60,19.30 330.60,19.30
             330.60,19.30 330.60,12.00 330.60,12.00
             330.60,12.00 357.30,12.00 357.30,12.00
             357.30,12.00 357.30,19.30 357.30,19.30
             357.30,19.30 348.30,19.30 348.30,19.30
             348.30,19.30 348.30,74.70 348.30,74.70
             348.30,74.70 357.30,74.70 357.30,74.70
             357.30,74.70 357.30,82.00 357.30,82.00
             357.30,82.00 330.60,82.00 330.60,82.00
             330.60,82.00 330.60,74.70 330.60,74.70 Z
           M 939.20,0.00
           C 939.20,0.00 948.00,0.00 948.00,0.00
             944.95,3.69 942.65,6.82 941.11,9.39
             941.04,9.49 940.97,9.62 940.90,9.74
             939.37,12.38 938.25,15.33 937.55,18.60
             937.29,19.78 937.09,21.02 936.95,22.28
             936.65,24.88 936.50,27.89 936.50,31.30
             936.50,31.30 936.50,62.70 936.50,62.70
             936.50,62.75 936.50,62.81 936.50,62.86
             936.50,64.49 936.54,66.11 936.62,67.72
             936.78,70.70 937.09,73.26 937.55,75.40
             938.00,77.59 938.69,79.69 939.58,81.69
             939.97,82.57 940.41,83.42 940.89,84.25
             942.43,86.88 944.80,90.13 948.00,94.00
             948.00,94.00 939.20,94.00 939.20,94.00
             935.67,90.33 932.92,86.10 930.95,81.30
             930.18,79.40 929.57,77.39 929.15,75.31
             928.38,71.60 928.00,67.33 928.00,62.50
             928.00,62.50 928.00,31.50 928.00,31.50
             928.00,26.07 928.49,21.36 929.46,17.37
             929.83,15.76 930.33,14.20 930.94,12.70
             932.91,7.90 935.67,3.67 939.20,0.00 Z
           M 1098.80,94.00
           C 1098.80,94.00 1090.00,94.00 1090.00,94.00
             1093.05,90.31 1095.35,87.18 1096.89,84.61
             1096.96,84.51 1097.03,84.38 1097.10,84.26
             1098.63,81.62 1099.75,78.67 1100.45,75.40
             1100.71,74.22 1100.91,72.98 1101.05,71.72
             1101.35,69.12 1101.50,66.11 1101.50,62.70
             1101.50,62.70 1101.50,31.30 1101.50,31.30
             1101.50,31.25 1101.50,31.19 1101.50,31.14
             1101.50,29.51 1101.46,27.89 1101.38,26.28
             1101.22,23.30 1100.91,20.74 1100.45,18.60
             1100.00,16.41 1099.31,14.31 1098.42,12.31
             1098.03,11.43 1097.59,10.58 1097.11,9.75
             1095.57,7.12 1093.20,3.87 1090.00,0.00
             1090.00,0.00 1098.80,0.00 1098.80,0.00
             1102.33,3.67 1105.08,7.90 1107.05,12.70
             1109.02,17.50 1110.00,23.77 1110.00,31.50
             1110.00,31.50 1110.00,62.50 1110.00,62.50
             1110.00,67.93 1109.51,72.64 1108.54,76.63
             1108.17,78.24 1107.67,79.80 1107.06,81.30
             1105.09,86.10 1102.33,90.33 1098.80,94.00 Z
           M 560.20,82.00
           C 560.20,82.00 545.30,82.00 545.30,82.00
             545.30,82.00 545.30,74.50 545.30,74.50
             545.30,74.50 561.20,74.50 561.20,74.50
             561.22,74.50 561.24,74.50 561.25,74.50
             561.76,74.50 562.26,74.46 562.74,74.39
             563.27,74.31 563.75,74.18 564.18,74.01
             564.59,73.85 564.96,73.62 565.30,73.35
             566.23,72.58 566.70,71.47 566.70,70.00
             566.70,70.00 566.70,64.70 566.70,64.70
             566.70,64.67 566.70,64.64 566.70,64.61
             566.70,64.04 566.63,63.48 566.50,62.95
             566.00,61.12 564.64,60.20 562.40,60.20
             562.40,60.20 558.70,60.20 558.70,60.20
             558.65,60.20 558.61,60.20 558.56,60.20
             557.30,60.20 556.07,60.11 554.86,59.93
             553.55,59.73 552.37,59.42 551.32,59.00
             550.19,58.57 549.15,57.93 548.25,57.15
             547.06,56.08 546.15,54.70 545.64,53.15
             545.27,52.11 545.03,50.95 544.90,49.68
             544.83,48.99 544.80,48.28 544.80,47.55
             544.80,47.54 544.80,47.52 544.80,47.50
             544.80,47.50 544.80,44.60 544.80,44.60
             544.80,44.56 544.80,44.51 544.80,44.47
             544.80,43.29 544.91,42.15 545.11,41.04
             545.64,38.38 546.80,36.35 548.60,34.95
             549.69,34.12 550.93,33.47 552.27,33.04
             553.43,32.66 554.72,32.38 556.14,32.21
             557.28,32.07 558.47,32.00 559.68,32.00
             559.72,32.00 559.76,32.00 559.80,32.00
             559.80,32.00 573.20,32.00 573.20,32.00
             573.20,32.00 573.20,39.50 573.20,39.50
             573.20,39.50 558.80,39.50 558.80,39.50
             558.78,39.50 558.76,39.50 558.75,39.50
             558.21,39.50 557.68,39.55 557.17,39.64
             556.53,39.76 555.96,39.96 555.46,40.23
             555.23,40.35 555.01,40.49 554.80,40.65
             553.80,41.42 553.30,42.53 553.30,44.00
             553.30,44.00 553.30,47.60 553.30,47.60
             553.30,47.62 553.30,47.63 553.30,47.65
             553.30,48.07 553.34,48.49 553.42,48.89
             553.54,49.42 553.72,49.87 553.98,50.27
             554.17,50.54 554.39,50.79 554.65,51.00
             555.25,51.49 555.98,51.83 556.77,51.98
             557.18,52.06 557.62,52.10 558.06,52.10
             558.07,52.10 558.09,52.10 558.10,52.10
             558.10,52.10 561.50,52.10 561.50,52.10
             561.55,52.10 561.59,52.10 561.64,52.10
             562.91,52.10 564.16,52.21 565.38,52.41
             566.80,52.67 568.08,53.08 569.21,53.64
             570.12,54.09 570.96,54.67 571.70,55.35
             573.78,57.28 574.93,60.04 575.16,63.64
             575.19,64.08 575.20,64.53 575.20,64.98
             575.20,64.99 575.20,64.99 575.20,65.00
             575.20,65.00 575.20,69.50 575.20,69.50
             575.20,73.70 573.92,76.83 571.35,78.90
             570.17,79.83 568.81,80.56 567.33,81.02
             566.13,81.41 564.81,81.68 563.36,81.84
             562.36,81.95 561.33,82.00 560.28,82.00
             560.25,82.00 560.23,82.00 560.20,82.00
             560.20,82.00 560.20,82.00 560.20,82.00 Z
           M 830.20,82.00
           C 830.20,82.00 815.30,82.00 815.30,82.00
             815.30,82.00 815.30,74.50 815.30,74.50
             815.30,74.50 831.20,74.50 831.20,74.50
             831.22,74.50 831.24,74.50 831.25,74.50
             831.76,74.50 832.26,74.46 832.74,74.39
             833.27,74.31 833.75,74.18 834.18,74.01
             834.59,73.85 834.96,73.62 835.30,73.35
             836.23,72.58 836.70,71.47 836.70,70.00
             836.70,70.00 836.70,64.70 836.70,64.70
             836.70,64.67 836.70,64.64 836.70,64.61
             836.70,64.04 836.63,63.48 836.50,62.95
             836.00,61.12 834.64,60.20 832.40,60.20
             832.40,60.20 828.70,60.20 828.70,60.20
             828.65,60.20 828.61,60.20 828.56,60.20
             827.30,60.20 826.07,60.11 824.86,59.93
             823.55,59.73 822.37,59.42 821.32,59.00
             820.19,58.57 819.15,57.93 818.25,57.15
             817.06,56.08 816.15,54.70 815.64,53.15
             815.27,52.11 815.03,50.95 814.90,49.68
             814.83,48.99 814.80,48.28 814.80,47.55
             814.80,47.54 814.80,47.52 814.80,47.50
             814.80,47.50 814.80,44.60 814.80,44.60
             814.80,44.56 814.80,44.51 814.80,44.47
             814.80,43.29 814.91,42.15 815.11,41.04
             815.64,38.38 816.80,36.35 818.60,34.95
             819.69,34.12 820.93,33.47 822.27,33.04
             823.43,32.66 824.72,32.38 826.14,32.21
             827.28,32.07 828.47,32.00 829.68,32.00
             829.72,32.00 829.76,32.00 829.80,32.00
             829.80,32.00 843.20,32.00 843.20,32.00
             843.20,32.00 843.20,39.50 843.20,39.50
             843.20,39.50 828.80,39.50 828.80,39.50
             828.78,39.50 828.76,39.50 828.75,39.50
             828.21,39.50 827.68,39.55 827.17,39.64
             826.53,39.76 825.96,39.96 825.46,40.23
             825.23,40.35 825.01,40.49 824.80,40.65
             823.80,41.42 823.30,42.53 823.30,44.00
             823.30,44.00 823.30,47.60 823.30,47.60
             823.30,47.62 823.30,47.63 823.30,47.65
             823.30,48.07 823.34,48.49 823.42,48.89
             823.54,49.42 823.72,49.87 823.98,50.27
             824.17,50.54 824.39,50.79 824.65,51.00
             825.25,51.49 825.98,51.83 826.77,51.98
             827.18,52.06 827.62,52.10 828.06,52.10
             828.07,52.10 828.09,52.10 828.10,52.10
             828.10,52.10 831.50,52.10 831.50,52.10
             831.55,52.10 831.59,52.10 831.64,52.10
             832.91,52.10 834.16,52.21 835.38,52.41
             836.80,52.67 838.08,53.08 839.21,53.64
             840.12,54.09 840.96,54.67 841.70,55.35
             843.78,57.28 844.93,60.04 845.16,63.64
             845.19,64.08 845.20,64.53 845.20,64.98
             845.20,64.99 845.20,64.99 845.20,65.00
             845.20,65.00 845.20,69.50 845.20,69.50
             845.20,73.70 843.92,76.83 841.35,78.90
             840.17,79.83 838.81,80.56 837.33,81.02
             836.13,81.41 834.81,81.68 833.36,81.84
             832.36,81.95 831.33,82.00 830.28,82.00
             830.25,82.00 830.23,82.00 830.20,82.00
             830.20,82.00 830.20,82.00 830.20,82.00 Z
           M 1580.70,72.00
           C 1580.70,72.00 1580.70,19.50 1580.70,19.50
             1580.70,19.50 1566.00,19.50 1566.00,19.50
             1566.00,19.50 1566.00,12.00 1566.00,12.00
             1566.00,12.00 1589.20,12.00 1589.20,12.00
             1589.20,12.00 1589.20,71.50 1589.20,71.50
             1589.20,71.51 1589.20,71.52 1589.20,71.53
             1589.20,71.80 1589.22,72.07 1589.26,72.33
             1589.37,72.97 1589.62,73.46 1590.00,73.80
             1590.48,74.22 1591.27,74.45 1592.35,74.49
             1592.46,74.50 1592.58,74.50 1592.69,74.50
             1592.69,74.50 1592.70,74.50 1592.70,74.50
             1592.70,74.50 1606.00,74.50 1606.00,74.50
             1606.00,74.50 1606.00,82.00 1606.00,82.00
             1606.00,82.00 1589.20,82.00 1589.20,82.00
             1586.93,82.00 1584.95,81.20 1583.25,79.60
             1581.92,78.35 1581.11,76.52 1580.82,74.11
             1580.74,73.45 1580.70,72.76 1580.70,72.06
             1580.70,72.04 1580.70,72.02 1580.70,72.00
             1580.70,72.00 1580.70,72.00 1580.70,72.00 Z
           M 607.20,70.00
           C 607.20,70.00 607.20,39.50 607.20,39.50
             607.20,39.50 597.70,39.50 597.70,39.50
             597.70,39.50 597.70,32.00 597.70,32.00
             597.70,32.00 607.20,32.00 607.20,32.00
             607.20,32.00 607.20,20.00 607.20,20.00
             607.20,20.00 615.70,20.00 615.70,20.00
             615.70,20.00 615.70,32.00 615.70,32.00
             615.70,32.00 630.30,32.00 630.30,32.00
             630.30,32.00 630.30,39.50 630.30,39.50
             630.30,39.50 615.70,39.50 615.70,39.50
             615.70,39.50 615.70,70.50 615.70,70.50
             615.70,70.51 615.70,70.53 615.70,70.54
             615.70,70.89 615.73,71.24 615.78,71.58
             615.84,71.96 615.93,72.29 616.06,72.59
             616.22,72.99 616.48,73.33 616.80,73.60
             617.11,73.85 617.46,74.04 617.84,74.17
             618.47,74.39 619.24,74.50 620.16,74.50
             620.16,74.50 630.30,74.50 630.30,74.50
             630.30,74.50 630.30,82.00 630.30,82.00
             630.30,82.00 617.70,82.00 617.70,82.00
             617.66,82.00 617.62,82.00 617.58,82.00
             616.52,82.00 615.48,81.87 614.49,81.62
             612.66,81.16 611.06,80.12 609.90,78.70
             608.17,76.58 607.27,73.82 607.20,70.41
             607.20,70.28 607.20,70.14 607.20,70.00
             607.20,70.00 607.20,70.00 607.20,70.00
             607.20,70.00 607.20,70.00 607.20,70.00 Z
           M 985.20,70.00
           C 985.20,70.00 985.20,39.50 985.20,39.50
             985.20,39.50 975.70,39.50 975.70,39.50
             975.70,39.50 975.70,32.00 975.70,32.00
             975.70,32.00 985.20,32.00 985.20,32.00
             985.20,32.00 985.20,20.00 985.20,20.00
             985.20,20.00 993.70,20.00 993.70,20.00
             993.70,20.00 993.70,32.00 993.70,32.00
             993.70,32.00 1008.30,32.00 1008.30,32.00
             1008.30,32.00 1008.30,39.50 1008.30,39.50
             1008.30,39.50 993.70,39.50 993.70,39.50
             993.70,39.50 993.70,70.50 993.70,70.50
             993.70,70.51 993.70,70.53 993.70,70.54
             993.70,70.89 993.73,71.24 993.78,71.58
             993.84,71.96 993.93,72.29 994.06,72.59
             994.22,72.99 994.48,73.33 994.80,73.60
             995.11,73.85 995.46,74.04 995.84,74.17
             996.47,74.39 997.24,74.50 998.16,74.50
             998.16,74.50 1008.30,74.50 1008.30,74.50
             1008.30,74.50 1008.30,82.00 1008.30,82.00
             1008.30,82.00 995.70,82.00 995.70,82.00
             995.66,82.00 995.62,82.00 995.58,82.00
             994.52,82.00 993.48,81.87 992.49,81.62
             990.66,81.16 989.06,80.12 987.90,78.70
             986.17,76.58 985.27,73.82 985.20,70.41
             985.20,70.28 985.20,70.14 985.20,70.00
             985.20,70.00 985.20,70.00 985.20,70.00
             985.20,70.00 985.20,70.00 985.20,70.00 Z
           M 1201.20,70.00
           C 1201.20,70.00 1201.20,39.50 1201.20,39.50
             1201.20,39.50 1191.70,39.50 1191.70,39.50
             1191.70,39.50 1191.70,32.00 1191.70,32.00
             1191.70,32.00 1201.20,32.00 1201.20,32.00
             1201.20,32.00 1201.20,20.00 1201.20,20.00
             1201.20,20.00 1209.70,20.00 1209.70,20.00
             1209.70,20.00 1209.70,32.00 1209.70,32.00
             1209.70,32.00 1224.30,32.00 1224.30,32.00
             1224.30,32.00 1224.30,39.50 1224.30,39.50
             1224.30,39.50 1209.70,39.50 1209.70,39.50
             1209.70,39.50 1209.70,70.50 1209.70,70.50
             1209.70,70.51 1209.70,70.53 1209.70,70.54
             1209.70,70.89 1209.73,71.24 1209.78,71.58
             1209.84,71.96 1209.93,72.29 1210.06,72.59
             1210.22,72.99 1210.48,73.33 1210.80,73.60
             1211.11,73.85 1211.46,74.04 1211.84,74.17
             1212.47,74.39 1213.24,74.50 1214.16,74.50
             1214.16,74.50 1224.30,74.50 1224.30,74.50
             1224.30,74.50 1224.30,82.00 1224.30,82.00
             1224.30,82.00 1211.70,82.00 1211.70,82.00
             1211.66,82.00 1211.62,82.00 1211.58,82.00
             1210.52,82.00 1209.48,81.87 1208.49,81.62
             1206.66,81.16 1205.06,80.12 1203.90,78.70
             1202.17,76.58 1201.27,73.82 1201.20,70.41
             1201.20,70.28 1201.20,70.14 1201.20,70.00
             1201.20,70.00 1201.20,70.00 1201.20,70.00
             1201.20,70.00 1201.20,70.00 1201.20,70.00 Z
           M 1535.10,82.00
           C 1535.10,82.00 1526.20,82.00 1526.20,82.00
             1526.15,82.00 1526.10,82.00 1526.05,82.00
             1524.76,82.00 1523.50,81.92 1522.26,81.76
             1519.36,81.37 1517.08,80.52 1515.45,79.20
             1515.35,79.12 1515.25,79.04 1515.15,78.95
             1514.15,78.04 1513.35,76.90 1512.85,75.61
             1512.10,73.75 1511.71,71.42 1511.70,68.63
             1511.70,68.63 1511.70,66.50 1511.70,66.50
             1511.70,57.71 1515.22,52.66 1522.26,51.35
             1523.51,51.12 1524.82,51.00 1526.16,51.00
             1526.21,51.00 1526.25,51.00 1526.30,51.00
             1526.30,51.00 1538.70,51.00 1538.70,51.00
             1538.70,51.00 1538.70,46.00 1538.70,46.00
             1538.70,45.98 1538.70,45.96 1538.70,45.93
             1538.70,45.28 1538.62,44.64 1538.48,44.03
             1538.22,42.92 1537.62,41.94 1536.80,41.20
             1535.53,40.07 1533.67,39.50 1531.20,39.50
             1531.20,39.50 1515.70,39.50 1515.70,39.50
             1515.70,39.50 1515.70,32.00 1515.70,32.00
             1515.70,32.00 1530.20,32.00 1530.20,32.00
             1530.26,32.00 1530.31,32.00 1530.37,32.00
             1531.89,32.00 1533.39,32.11 1534.85,32.31
             1536.44,32.55 1537.86,32.92 1539.14,33.42
             1540.59,33.97 1541.91,34.78 1543.05,35.80
             1545.22,37.79 1546.54,40.72 1547.01,44.59
             1547.13,45.66 1547.20,46.77 1547.20,47.90
             1547.20,47.93 1547.20,47.97 1547.20,48.00
             1547.20,48.00 1547.20,72.00 1547.20,72.00
             1547.20,72.01 1547.20,72.02 1547.20,72.03
             1547.20,72.35 1547.25,72.66 1547.34,72.94
             1547.51,73.49 1547.87,73.95 1548.35,74.25
             1549.00,74.67 1550.02,74.92 1551.40,74.98
             1551.66,74.99 1551.92,75.00 1552.18,75.00
             1552.19,75.00 1552.19,75.00 1552.20,75.00
             1552.20,75.00 1552.20,82.00 1552.20,82.00
             1552.20,82.00 1546.70,82.00 1546.70,82.00
             1546.26,82.00 1545.83,81.94 1545.43,81.83
             1545.05,81.73 1544.67,81.59 1544.27,81.40
             1544.13,81.34 1543.99,81.27 1543.85,81.20
             1542.82,80.67 1541.93,79.93 1541.20,79.00
             1539.70,80.95 1537.73,81.95 1535.28,82.00
             1535.22,82.00 1535.16,82.00 1535.10,82.00
             1535.10,82.00 1535.10,82.00 1535.10,82.00 Z
           M 129.50,82.00
           C 129.50,82.00 109.50,82.00 109.50,82.00
             109.50,82.00 109.50,12.00 109.50,12.00
             109.50,12.00 128.30,12.00 128.30,12.00
             134.08,12.00 138.36,13.14 141.13,15.42
             141.21,15.48 141.28,15.54 141.35,15.60
             144.12,18.00 145.50,22.00 145.50,27.60
             145.50,27.60 145.50,33.30 145.50,33.30
             145.50,33.36 145.50,33.42 145.50,33.48
             145.50,35.09 145.28,36.65 144.86,38.13
             144.07,40.91 142.32,43.29 140.00,44.90
             143.25,46.64 145.60,49.84 146.19,53.63
             146.39,54.74 146.50,55.90 146.50,57.08
             146.50,57.12 146.50,57.16 146.50,57.20
             146.50,57.20 146.50,66.20 146.50,66.20
             146.50,66.25 146.50,66.30 146.50,66.36
             146.50,67.73 146.41,69.09 146.22,70.42
             145.73,73.84 144.57,76.44 142.76,78.20
             142.69,78.27 142.62,78.33 142.55,78.40
             140.08,80.65 136.10,81.85 130.61,81.99
             130.25,82.00 129.88,82.00 129.51,82.00
             129.51,82.00 129.50,82.00 129.50,82.00
             129.50,82.00 129.50,82.00 129.50,82.00 Z
           M 454.50,82.00
           C 454.50,82.00 450.40,82.00 450.40,82.00
             450.35,82.00 450.29,82.00 450.23,82.00
             448.74,82.00 447.26,81.90 445.82,81.71
             444.25,81.48 442.84,81.14 441.58,80.67
             440.06,80.13 438.68,79.30 437.50,78.25
             434.77,75.75 433.40,71.67 433.40,66.00
             433.40,66.00 433.40,48.00 433.40,48.00
             433.40,47.95 433.40,47.89 433.40,47.84
             433.40,46.41 433.51,45.01 433.72,43.64
             434.29,40.23 435.56,37.62 437.55,35.80
             439.59,33.93 442.46,32.75 446.15,32.26
             447.48,32.09 448.86,32.00 450.26,32.00
             450.31,32.00 450.35,32.00 450.40,32.00
             450.40,32.00 462.00,32.00 462.00,32.00
             462.00,32.00 462.00,12.00 462.00,12.00
             462.00,12.00 470.50,12.00 470.50,12.00
             470.50,12.00 470.50,82.00 470.50,82.00
             470.50,82.00 462.50,82.00 462.50,82.00
             462.50,82.00 462.50,79.70 462.50,79.70
             460.95,80.77 459.16,81.50 457.21,81.79
             456.36,81.93 455.47,82.00 454.57,82.00
             454.54,82.00 454.52,82.00 454.50,82.00
             454.50,82.00 454.50,82.00 454.50,82.00 Z
           M 651.00,74.50
           C 651.00,74.50 658.30,74.50 658.30,74.50
             658.30,74.50 658.30,39.50 658.30,39.50
             658.30,39.50 651.00,39.50 651.00,39.50
             651.00,39.50 651.00,32.00 651.00,32.00
             651.00,32.00 666.30,32.00 666.30,32.00
             666.30,32.00 666.30,34.70 666.30,34.70
             668.15,33.19 670.47,32.23 673.00,32.05
             673.41,32.02 673.84,32.00 674.28,32.00
             674.28,32.00 674.29,32.00 674.30,32.00
             674.30,32.00 684.60,32.00 684.60,32.00
             684.60,32.00 684.60,40.00 684.60,40.00
             684.60,40.00 673.30,40.00 673.30,40.00
             673.28,40.00 673.25,40.00 673.23,40.00
             672.60,40.00 671.98,40.07 671.39,40.21
             670.23,40.48 669.21,41.14 668.50,42.05
             668.10,42.55 667.75,43.10 667.46,43.69
             667.08,44.45 666.85,45.30 666.80,46.20
             666.80,46.20 666.80,74.50 666.80,74.50
             666.80,74.50 677.70,74.50 677.70,74.50
             677.70,74.50 677.70,82.00 677.70,82.00
             677.70,82.00 651.00,82.00 651.00,82.00
             651.00,82.00 651.00,74.50 651.00,74.50 Z
           M 1299.00,74.50
           C 1299.00,74.50 1306.30,74.50 1306.30,74.50
             1306.30,74.50 1306.30,39.50 1306.30,39.50
             1306.30,39.50 1299.00,39.50 1299.00,39.50
             1299.00,39.50 1299.00,32.00 1299.00,32.00
             1299.00,32.00 1314.30,32.00 1314.30,32.00
             1314.30,32.00 1314.30,34.70 1314.30,34.70
             1316.15,33.19 1318.47,32.23 1321.00,32.05
             1321.41,32.02 1321.84,32.00 1322.28,32.00
             1322.28,32.00 1322.29,32.00 1322.30,32.00
             1322.30,32.00 1332.60,32.00 1332.60,32.00
             1332.60,32.00 1332.60,40.00 1332.60,40.00
             1332.60,40.00 1321.30,40.00 1321.30,40.00
             1321.28,40.00 1321.25,40.00 1321.23,40.00
             1320.60,40.00 1319.98,40.07 1319.39,40.21
             1318.23,40.48 1317.21,41.14 1316.50,42.05
             1316.10,42.55 1315.75,43.10 1315.46,43.69
             1315.08,44.45 1314.85,45.30 1314.80,46.20
             1314.80,46.20 1314.80,74.50 1314.80,74.50
             1314.80,74.50 1325.70,74.50 1325.70,74.50
             1325.70,74.50 1325.70,82.00 1325.70,82.00
             1325.70,82.00 1299.00,82.00 1299.00,82.00
             1299.00,82.00 1299.00,74.50 1299.00,74.50 Z
           M 758.40,66.00
           C 758.40,66.00 758.40,48.00 758.40,48.00
             758.40,42.58 759.50,38.61 761.71,36.11
             761.84,35.97 761.97,35.83 762.10,35.70
             763.15,34.68 764.42,33.87 765.82,33.34
             768.09,32.45 770.95,32.00 774.40,32.00
             774.40,32.00 779.10,32.00 779.10,32.00
             782.63,32.00 785.52,32.73 787.77,34.19
             788.53,34.69 789.23,35.28 789.85,35.95
             791.85,38.12 793.03,41.11 793.39,44.92
             793.46,45.74 793.50,46.59 793.50,47.45
             793.50,47.47 793.50,47.48 793.50,47.50
             793.50,47.50 793.50,60.50 793.50,60.50
             793.50,60.50 766.90,60.50 766.90,60.50
             766.90,60.50 766.90,68.00 766.90,68.00
             766.90,68.02 766.90,68.04 766.90,68.07
             766.90,68.72 766.98,69.36 767.12,69.97
             767.38,71.08 767.98,72.06 768.80,72.80
             770.07,73.93 771.93,74.50 774.40,74.50
             774.40,74.50 790.30,74.50 790.30,74.50
             790.30,74.50 790.30,82.00 790.30,82.00
             790.30,82.00 775.40,82.00 775.40,82.00
             775.35,82.00 775.29,82.00 775.23,82.00
             773.74,82.00 772.26,81.90 770.82,81.71
             769.25,81.48 767.84,81.14 766.58,80.67
             765.06,80.13 763.68,79.30 762.50,78.25
             759.77,75.75 758.40,71.67 758.40,66.00 Z
           M 1244.40,66.00
           C 1244.40,66.00 1244.40,48.00 1244.40,48.00
             1244.40,42.58 1245.50,38.61 1247.71,36.11
             1247.84,35.97 1247.97,35.83 1248.10,35.70
             1249.15,34.68 1250.42,33.87 1251.82,33.34
             1254.09,32.45 1256.95,32.00 1260.40,32.00
             1260.40,32.00 1265.10,32.00 1265.10,32.00
             1268.63,32.00 1271.52,32.73 1273.77,34.19
             1274.53,34.69 1275.23,35.28 1275.85,35.95
             1277.85,38.12 1279.03,41.11 1279.39,44.92
             1279.46,45.74 1279.50,46.59 1279.50,47.45
             1279.50,47.47 1279.50,47.48 1279.50,47.50
             1279.50,47.50 1279.50,60.50 1279.50,60.50
             1279.50,60.50 1252.90,60.50 1252.90,60.50
             1252.90,60.50 1252.90,68.00 1252.90,68.00
             1252.90,68.02 1252.90,68.04 1252.90,68.07
             1252.90,68.72 1252.98,69.36 1253.12,69.97
             1253.38,71.08 1253.98,72.06 1254.80,72.80
             1256.07,73.93 1257.93,74.50 1260.40,74.50
             1260.40,74.50 1276.30,74.50 1276.30,74.50
             1276.30,74.50 1276.30,82.00 1276.30,82.00
             1276.30,82.00 1261.40,82.00 1261.40,82.00
             1261.35,82.00 1261.29,82.00 1261.23,82.00
             1259.74,82.00 1258.26,81.90 1256.82,81.71
             1255.25,81.48 1253.84,81.14 1252.58,80.67
             1251.06,80.13 1249.68,79.30 1248.50,78.25
             1245.77,75.75 1244.40,71.67 1244.40,66.00 Z
           M 76.00,82.00
           C 76.00,82.00 72.00,82.00 72.00,82.00
             67.88,82.00 64.44,81.28 61.68,79.85
             60.58,79.29 59.56,78.58 58.65,77.75
             56.90,76.12 55.58,74.02 54.90,71.66
             54.45,70.20 54.17,68.58 54.06,66.82
             54.02,66.23 54.00,65.63 54.00,65.03
             54.00,65.02 54.00,65.01 54.00,65.00
             54.00,65.00 54.00,29.00 54.00,29.00
             54.00,24.98 54.78,21.67 56.34,19.07
             56.97,18.02 57.75,17.07 58.65,16.25
             61.75,13.42 66.20,12.00 72.00,12.00
             72.00,12.00 76.00,12.00 76.00,12.00
             80.12,12.00 83.56,12.72 86.32,14.15
             87.42,14.71 88.44,15.42 89.35,16.25
             91.10,17.88 92.42,19.98 93.10,22.34
             93.55,23.80 93.83,25.42 93.94,27.18
             93.98,27.77 94.00,28.37 94.00,28.97
             94.00,28.98 94.00,28.99 94.00,29.00
             94.00,29.00 94.00,65.00 94.00,65.00
             94.00,69.02 93.22,72.33 91.66,74.93
             91.03,75.98 90.25,76.93 89.35,77.75
             86.25,80.58 81.80,82.00 76.00,82.00 Z
           M 238.00,82.00
           C 238.00,82.00 234.00,82.00 234.00,82.00
             229.88,82.00 226.44,81.28 223.68,79.85
             222.58,79.29 221.56,78.58 220.65,77.75
             218.90,76.12 217.58,74.02 216.90,71.66
             216.45,70.20 216.17,68.58 216.06,66.82
             216.02,66.23 216.00,65.63 216.00,65.03
             216.00,65.02 216.00,65.01 216.00,65.00
             216.00,65.00 216.00,29.00 216.00,29.00
             216.00,24.98 216.78,21.67 218.34,19.07
             218.97,18.02 219.75,17.07 220.65,16.25
             223.75,13.42 228.20,12.00 234.00,12.00
             234.00,12.00 238.00,12.00 238.00,12.00
             242.12,12.00 245.56,12.72 248.32,14.15
             249.42,14.71 250.44,15.42 251.35,16.25
             253.10,17.88 254.42,19.98 255.10,22.34
             255.55,23.80 255.83,25.42 255.94,27.18
             255.98,27.77 256.00,28.37 256.00,28.97
             256.00,28.98 256.00,28.99 256.00,29.00
             256.00,29.00 256.00,65.00 256.00,65.00
             256.00,69.02 255.22,72.33 253.66,74.93
             253.03,75.98 252.25,76.93 251.35,77.75
             248.25,80.58 243.80,82.00 238.00,82.00 Z
           M 717.70,39.50
           C 717.70,39.50 703.00,39.50 703.00,39.50
             703.00,39.50 703.00,32.00 703.00,32.00
             703.00,32.00 726.20,32.00 726.20,32.00
             726.20,32.00 726.20,74.50 726.20,74.50
             726.20,74.50 741.00,74.50 741.00,74.50
             741.00,74.50 741.00,82.00 741.00,82.00
             741.00,82.00 717.70,82.00 717.70,82.00
             717.70,82.00 717.70,39.50 717.70,39.50 Z
           M 1419.70,39.50
           C 1419.70,39.50 1405.00,39.50 1405.00,39.50
             1405.00,39.50 1405.00,32.00 1405.00,32.00
             1405.00,32.00 1428.20,32.00 1428.20,32.00
             1428.20,32.00 1428.20,74.50 1428.20,74.50
             1428.20,74.50 1443.00,74.50 1443.00,74.50
             1443.00,74.50 1443.00,82.00 1443.00,82.00
             1443.00,82.00 1419.70,82.00 1419.70,82.00
             1419.70,82.00 1419.70,39.50 1419.70,39.50 Z
           M 77.00,19.60
           C 77.00,19.60 71.00,19.60 71.00,19.60
             70.97,19.60 70.94,19.60 70.91,19.60
             70.02,19.60 69.15,19.72 68.32,19.93
             67.06,20.27 65.92,20.92 65.00,21.80
             64.24,22.51 63.63,23.37 63.22,24.35
             62.89,25.17 62.70,26.08 62.70,27.03
             62.70,27.05 62.70,27.08 62.70,27.10
             62.70,27.10 62.70,66.90 62.70,66.90
             62.70,66.93 62.70,66.96 62.70,66.99
             62.70,68.98 63.53,70.78 64.86,72.06
             64.90,72.11 64.95,72.15 65.00,72.20
             66.15,73.29 67.63,74.04 69.28,74.27
             69.82,74.36 70.38,74.40 70.96,74.40
             70.97,74.40 70.99,74.40 71.00,74.40
             71.00,74.40 77.00,74.40 77.00,74.40
             77.03,74.40 77.06,74.40 77.09,74.40
             77.98,74.40 78.85,74.28 79.68,74.07
             80.94,73.73 82.08,73.08 83.00,72.20
             83.76,71.49 84.37,70.63 84.78,69.65
             85.11,68.83 85.30,67.92 85.30,66.97
             85.30,66.95 85.30,66.92 85.30,66.90
             85.30,66.90 85.30,27.10 85.30,27.10
             85.30,27.07 85.30,27.04 85.30,27.01
             85.30,25.02 84.47,23.22 83.14,21.94
             83.10,21.89 83.05,21.85 83.00,21.80
             81.85,20.71 80.37,19.96 78.72,19.73
             78.18,19.64 77.62,19.60 77.04,19.60
             77.03,19.60 77.01,19.60 77.00,19.60
             77.00,19.60 77.00,19.60 77.00,19.60 Z
           M 239.00,19.60
           C 239.00,19.60 233.00,19.60 233.00,19.60
             232.97,19.60 232.94,19.60 232.91,19.60
             232.02,19.60 231.15,19.72 230.32,19.93
             229.06,20.27 227.92,20.92 227.00,21.80
             226.24,22.51 225.63,23.37 225.22,24.35
             224.89,25.17 224.70,26.08 224.70,27.03
             224.70,27.05 224.70,27.08 224.70,27.10
             224.70,27.10 224.70,66.90 224.70,66.90
             224.70,66.93 224.70,66.96 224.70,66.99
             224.70,68.98 225.53,70.78 226.86,72.06
             226.90,72.11 226.95,72.15 227.00,72.20
             228.15,73.29 229.63,74.04 231.28,74.27
             231.82,74.36 232.38,74.40 232.96,74.40
             232.97,74.40 232.99,74.40 233.00,74.40
             233.00,74.40 239.00,74.40 239.00,74.40
             239.03,74.40 239.06,74.40 239.09,74.40
             239.98,74.40 240.85,74.28 241.68,74.07
             242.94,73.73 244.08,73.08 245.00,72.20
             245.76,71.49 246.37,70.63 246.78,69.65
             247.11,68.83 247.30,67.92 247.30,66.97
             247.30,66.95 247.30,66.92 247.30,66.90
             247.30,66.90 247.30,27.10 247.30,27.10
             247.30,27.07 247.30,27.04 247.30,27.01
             247.30,25.02 246.47,23.22 245.14,21.94
             245.10,21.89 245.05,21.85 245.00,21.80
             243.85,20.71 242.37,19.96 240.72,19.73
             240.18,19.64 239.62,19.60 239.04,19.60
             239.03,19.60 239.01,19.60 239.00,19.60
             239.00,19.60 239.00,19.60 239.00,19.60 Z
           M 462.00,69.00
           C 462.00,69.00 462.00,39.50 462.00,39.50
             462.00,39.50 449.40,39.50 449.40,39.50
             447.76,39.50 446.38,39.75 445.27,40.25
             444.73,40.49 444.24,40.81 443.80,41.20
             442.92,41.99 442.30,43.06 442.07,44.27
             441.96,44.80 441.90,45.37 441.90,45.94
             441.90,45.96 441.90,45.98 441.90,46.00
             441.90,46.00 441.90,68.00 441.90,68.00
             441.90,68.02 441.90,68.04 441.90,68.07
             441.90,68.72 441.98,69.36 442.12,69.97
             442.38,71.08 442.98,72.06 443.80,72.80
             445.07,73.93 446.93,74.50 449.40,74.50
             449.40,74.50 455.50,74.50 455.50,74.50
             457.70,74.50 459.33,73.92 460.40,72.75
             460.79,72.33 461.13,71.86 461.41,71.35
             461.78,70.65 462.00,69.85 462.00,69.00
             462.00,69.00 462.00,69.00 462.00,69.00 Z
           M 130.50,49.10
           C 130.50,49.10 118.20,49.10 118.20,49.10
             118.20,49.10 118.20,74.50 118.20,74.50
             118.20,74.50 130.40,74.50 130.40,74.50
             130.43,74.50 130.45,74.50 130.48,74.50
             131.15,74.50 131.81,74.45 132.46,74.35
             133.17,74.24 133.80,74.06 134.37,73.82
             134.98,73.57 135.53,73.20 136.00,72.75
             137.20,71.58 137.80,69.73 137.80,67.20
             137.80,67.20 137.80,56.30 137.80,56.30
             137.80,56.27 137.80,56.25 137.80,56.22
             137.80,55.46 137.70,54.72 137.52,54.01
             137.23,52.87 136.62,51.85 135.80,51.05
             134.84,50.12 133.60,49.47 132.21,49.25
             131.68,49.15 131.12,49.10 130.55,49.10
             130.53,49.10 130.52,49.10 130.50,49.10
             130.50,49.10 130.50,49.10 130.50,49.10 Z
           M 20.00,19.50
           C 20.00,19.50 8.70,19.50 8.70,19.50
             8.70,19.50 8.70,45.50 8.70,45.50
             8.70,45.50 20.00,45.50 20.00,45.50
             20.02,45.50 20.05,45.50 20.08,45.50
             20.72,45.50 21.36,45.45 21.98,45.36
             22.66,45.26 23.28,45.09 23.83,44.87
             24.48,44.61 25.06,44.23 25.55,43.75
             26.08,43.21 26.49,42.56 26.75,41.83
             27.12,40.84 27.30,39.63 27.30,38.20
             27.30,38.20 27.30,26.70 27.30,26.70
             27.30,26.67 27.30,26.65 27.30,26.62
             27.30,25.98 27.25,25.35 27.16,24.73
             27.06,24.06 26.90,23.45 26.68,22.92
             26.43,22.27 26.04,21.68 25.55,21.20
             25.03,20.71 24.40,20.32 23.71,20.07
             23.17,19.87 22.57,19.72 21.91,19.62
             21.31,19.54 20.70,19.50 20.07,19.50
             20.04,19.50 20.02,19.50 20.00,19.50
             20.00,19.50 20.00,19.50 20.00,19.50 Z
           M 129.50,19.50
           C 129.50,19.50 118.20,19.50 118.20,19.50
             118.20,19.50 118.20,41.60 118.20,41.60
             118.20,41.60 129.50,41.60 129.50,41.60
             129.53,41.60 129.56,41.60 129.58,41.60
             130.52,41.60 131.42,41.44 132.26,41.14
             133.18,40.80 134.01,40.27 134.70,39.60
             135.81,38.54 136.55,37.11 136.73,35.50
             136.77,35.12 136.80,34.72 136.80,34.32
             136.80,34.32 136.80,34.31 136.80,34.30
             136.80,34.30 136.80,26.70 136.80,26.70
             136.80,26.67 136.80,26.65 136.80,26.62
             136.80,25.98 136.75,25.35 136.66,24.73
             136.56,24.06 136.40,23.45 136.18,22.92
             135.93,22.27 135.54,21.68 135.05,21.20
             134.53,20.71 133.90,20.32 133.21,20.07
             132.67,19.87 132.07,19.72 131.41,19.62
             130.81,19.54 130.20,19.50 129.57,19.50
             129.54,19.50 129.52,19.50 129.50,19.50
             129.50,19.50 129.50,19.50 129.50,19.50 Z
           M 1538.70,69.50
           C 1538.70,69.50 1538.70,58.50 1538.70,58.50
             1538.70,58.50 1526.20,58.50 1526.20,58.50
             1524.47,58.50 1523.03,59.07 1521.90,60.20
             1520.77,61.33 1520.20,62.77 1520.20,64.50
             1520.20,64.50 1520.20,69.50 1520.20,69.50
             1520.20,69.52 1520.20,69.53 1520.20,69.55
             1520.20,69.99 1520.23,70.43 1520.29,70.85
             1520.37,71.33 1520.48,71.75 1520.64,72.13
             1520.81,72.57 1521.07,72.97 1521.40,73.30
             1522.20,74.10 1523.47,74.50 1525.20,74.50
             1525.20,74.50 1534.10,74.50 1534.10,74.50
             1535.64,74.50 1536.75,74.22 1537.42,73.67
             1537.61,73.51 1537.77,73.32 1537.90,73.10
             1538.43,72.17 1538.70,70.97 1538.70,69.50 Z
           M 785.20,53.00
           C 785.20,53.00 785.20,45.50 785.20,45.50
             785.20,43.77 784.63,42.33 783.50,41.20
             782.37,40.07 780.93,39.50 779.20,39.50
             779.20,39.50 773.40,39.50 773.40,39.50
             771.12,39.50 769.48,40.00 768.49,40.99
             768.45,41.04 768.40,41.10 768.35,41.15
             767.59,42.02 767.13,43.20 766.97,44.70
             766.92,45.11 766.90,45.54 766.90,45.97
             766.90,45.98 766.90,45.99 766.90,46.00
             766.90,46.00 766.90,53.00 766.90,53.00
             766.90,53.00 785.20,53.00 785.20,53.00 Z
           M 1271.20,53.00
           C 1271.20,53.00 1271.20,45.50 1271.20,45.50
             1271.20,43.77 1270.63,42.33 1269.50,41.20
             1268.37,40.07 1266.93,39.50 1265.20,39.50
             1265.20,39.50 1259.40,39.50 1259.40,39.50
             1257.12,39.50 1255.48,40.00 1254.49,40.99
             1254.45,41.04 1254.40,41.10 1254.35,41.15
             1253.59,42.02 1253.13,43.20 1252.97,44.70
             1252.92,45.11 1252.90,45.54 1252.90,45.97
             1252.90,45.98 1252.90,45.99 1252.90,46.00
             1252.90,46.00 1252.90,53.00 1252.90,53.00
             1252.90,53.00 1271.20,53.00 1271.20,53.00 Z
           M 717.20,12.00
           C 717.20,12.00 726.70,12.00 726.70,12.00
             726.70,12.00 726.70,21.00 726.70,21.00
             726.70,21.00 717.20,21.00 717.20,21.00
             717.20,21.00 717.20,12.00 717.20,12.00 Z
           M 1419.20,12.00
           C 1419.20,12.00 1428.70,12.00 1428.70,12.00
             1428.70,12.00 1428.70,21.00 1428.70,21.00
             1428.70,21.00 1419.20,21.00 1419.20,21.00
             1419.20,21.00 1419.20,12.00 1419.20,12.00 Z" />
</svg>
