<?xml version="1.0"?>
<svg width="1606" height="94" xmlns="http://www.w3.org/2000/svg" xmlns:svg="http://www.w3.org/2000/svg" preserveAspectRatio="xMidYMid meet" version="1.0">
 <metadata>Created by potrace 1.12, written by Peter Selinger 2001-2015</metadata>

 <g class="layer">
  <title>Layer 1</title>
  <g fill="#000000" id="svg_1" transform="matrix(0.21347, 0, 0, -0.230564, -1.1347, 0.130565)">
   <path d="m310,-30c0,-17 7,-20 40,-20l40,0l0,-180l0,-180l40,0l40,0l0,180l0,180l40,0c33,0 40,3 40,20c0,19 -7,20 -120,20c-113,0 -120,-1 -120,-20z" id="svg_2"/>
   <path d="m590,-210l0,-200l40,0l40,0l0,80l0,80l45,0l45,0l0,-80l0,-80l40,0l41,0l-3,77c-3,68 -6,78 -23,83c-27,7 -26,34 3,38c21,3 22,8 22,82c0,74 -1,79 -22,82c-13,2 -23,10 -23,18c0,12 -19,16 -102,18l-103,3l0,-201zm170,80l0,-80l-45,0l-45,0l0,80l0,80l45,0l45,0l0,-80z" id="svg_3"/>
   <path d="m960,-30c0,-13 -7,-20 -20,-20c-13,0 -20,-7 -20,-20c0,-13 -7,-20 -20,-20c-19,0 -20,-7 -20,-160l0,-160l40,0l40,0l0,100l0,100l65,0l65,0l0,-100l0,-100l40,0l40,0l0,160c0,156 -1,160 -21,160c-12,0 -23,8 -26,20c-3,11 -14,20 -24,20c-12,0 -19,7 -19,20c0,18 -7,20 -60,20c-53,0 -60,-2 -60,-20zm83,-40c3,-12 14,-20 26,-20c18,0 21,-6 21,-40l0,-40l-65,0l-65,0l0,40c0,33 3,40 20,40c13,0 20,7 20,20c0,13 7,20 19,20c10,0 21,-9 24,-20z" id="svg_4"/>
   <path d="m1250,-30c0,-13 -7,-20 -20,-20c-18,0 -20,-7 -20,-60c0,-53 2,-60 20,-60c13,0 20,-7 20,-20c0,-17 7,-20 40,-20c33,0 40,-3 40,-20c0,-13 7,-20 20,-20c18,0 20,-7 20,-60l0,-60l-40,0c-33,0 -40,3 -40,20c0,17 -7,20 -40,20c-33,0 -40,-3 -40,-20c0,-13 7,-20 20,-20c13,0 20,-7 20,-20c0,-18 7,-20 80,-20c73,0 80,2 80,20c0,13 7,20 20,20c18,0 20,7 20,80c0,73 -2,80 -20,80c-13,0 -20,7 -20,20c0,17 -7,20 -40,20c-33,0 -40,3 -40,20c0,13 -7,20 -20,20c-17,0 -20,7 -20,40l0,40l40,0c33,0 40,-3 40,-20c0,-17 7,-20 40,-20c33,0 40,3 40,20c0,13 -7,20 -20,20c-13,0 -20,7 -20,20c0,18 -7,20 -80,20c-73,0 -80,-2 -80,-20z" id="svg_5"/>
   <path d="m1500,-210l0,-200l40,0l40,0l0,100l0,100l40,0l40,0l0,-100l0,-100l40,0l40,0l0,200l0,200l-40,0l-40,0l0,-80l0,-80l-40,0l-40,0l0,80l0,80l-40,0l-40,0l0,-200z" id="svg_6"/>
   <path d="m3211,-57c-29,-46 -29,-48 -11,-55c11,-4 20,-12 20,-18c0,-22 16,-8 43,36c15,26 26,48 23,51c-2,2 -14,-14 -26,-36c-20,-34 -25,-38 -41,-28c-17,11 -17,13 3,49c33,59 55,51 104,-35c28,-48 38,-74 31,-79c-16,-9 -8,-14 34,-22c35,-6 36,-5 52,34c14,37 14,39 -3,37c-13,-1 -29,15 -52,53l-33,55l-57,3l-57,3l-30,-48z" id="svg_7"/>
   <path d="m3650,-30c0,-13 7,-20 20,-20c19,0 20,-7 20,-160c0,-153 -1,-160 -20,-160c-13,0 -20,-7 -20,-20c0,-18 7,-20 80,-20c73,0 80,2 80,20c0,13 -7,20 -20,20c-19,0 -20,7 -20,160c0,153 1,160 20,160c13,0 20,7 20,20c0,18 -7,20 -80,20c-73,0 -80,-2 -80,-20z" id="svg_8"/>
   <path d="m3850,-210l0,-200l40,0l40,0l0,80l0,80l45,0l45,0l0,-80l0,-80l40,0l40,0l0,76c0,67 -2,76 -20,81c-11,3 -20,14 -20,24c0,12 7,19 20,19c18,0 20,7 20,80c0,73 -2,80 -20,80c-13,0 -20,7 -20,20c0,19 -7,20 -105,20l-105,0l0,-200zm170,80l0,-80l-45,0l-45,0l0,80l0,80l45,0l45,0l0,-80z" id="svg_9"/>
   <path d="m4180,-30c0,-13 -7,-20 -20,-20c-19,0 -20,-7 -20,-160c0,-153 1,-160 20,-160c13,0 20,-7 20,-20c0,-18 7,-20 79,-20c70,0 79,2 84,20c3,11 12,20 21,20c9,0 16,8 16,20c0,29 -69,29 -77,0c-4,-16 -14,-20 -44,-20l-39,0l0,160l0,160l39,0c30,0 40,-4 44,-20c7,-28 77,-29 77,-1c0,10 -9,21 -20,24c-11,3 -20,12 -20,21c0,13 -13,16 -80,16c-73,0 -80,-2 -80,-20z" id="svg_10"/>
   <path d="m20,-70c0,-13 7,-20 20,-20c13,0 20,-7 20,-20c0,-13 7,-20 20,-20c13,0 20,-7 20,-20c0,-13 7,-20 20,-20c13,0 20,-7 20,-20c0,-13 -7,-20 -20,-20c-13,0 -20,-7 -20,-20c0,-13 -7,-20 -20,-20c-13,0 -20,-7 -20,-20c0,-13 -7,-20 -20,-20c-13,0 -20,-7 -20,-20c0,-18 7,-20 60,-20c53,0 60,2 60,20c0,13 7,20 20,20c13,0 20,7 20,20c0,13 7,20 20,20c13,0 20,7 20,20c0,13 7,20 20,20c13,0 20,7 20,20c0,13 -7,20 -20,20c-13,0 -20,7 -20,20c0,13 -7,20 -20,20c-13,0 -20,7 -20,20c0,13 -7,20 -20,20c-13,0 -20,7 -20,20c0,18 -7,20 -60,20c-53,0 -60,-2 -60,-20z" id="svg_11"/>
   <path d="m3140,-139c-21,-6 -22,-8 -8,-14c16,-5 14,-13 -18,-66l-36,-60l27,-45c27,-46 27,-46 83,-46c42,0 53,3 44,12c-7,7 -8,17 -1,30c9,16 5,18 -41,18c-27,0 -50,2 -50,5c0,17 64,105 77,105c10,0 13,5 8,18c-4,9 -10,25 -12,35c-6,18 -29,20 -73,8zm76,-201c0,-18 -6,-21 -41,-18c-29,2 -41,8 -43,21c-3,14 4,17 40,17c37,0 44,-3 44,-20z" id="svg_12"/>
   <path d="m1780,-270c0,-95 1,-100 21,-100c12,0 23,-8 26,-20c7,-26 29,-26 36,0c3,11 12,20 20,20c8,0 17,8 19,18c3,10 13,19 22,19c9,0 16,-8 16,-19c0,-12 7,-18 21,-18c12,0 23,-8 26,-20c7,-27 43,-27 43,0c0,13 7,20 20,20c19,0 20,7 20,100l0,100l-40,0l-40,0l0,-60c0,-57 -1,-60 -25,-60c-18,0 -25,5 -25,20c0,11 -7,20 -15,20c-8,0 -15,-9 -15,-20c0,-15 -7,-20 -25,-20c-24,0 -25,3 -25,60l0,60l-40,0l-40,0l0,-100z" id="svg_13"/>
   <path d="m2150,-190c0,-13 -7,-20 -20,-20c-13,0 -20,-7 -20,-20c0,-13 7,-20 20,-20c13,0 20,-7 20,-20c0,-13 -7,-20 -20,-20c-17,0 -20,-7 -20,-40c0,-33 3,-40 20,-40c13,0 20,-7 20,-20c0,-19 7,-20 100,-20l100,0l0,100c0,93 -1,100 -20,100c-13,0 -20,7 -20,20c0,18 -7,20 -80,20c-73,0 -80,-2 -80,-20zm120,-40c0,-17 -7,-20 -40,-20c-33,0 -40,3 -40,20c0,17 7,20 40,20c33,0 40,-3 40,-20zm0,-100l0,-40l-40,0l-40,0l0,40l0,40l40,0l40,0l0,-40z" id="svg_14"/>
   <path d="m2400,-290l0,-120l40,0l40,0l0,80c0,73 2,80 20,80c13,0 20,7 20,20c0,17 7,20 40,20c33,0 40,3 40,20c0,17 -7,20 -40,20c-33,0 -40,-3 -40,-20c0,-13 -7,-20 -20,-20c-13,0 -20,7 -20,20c0,17 -7,20 -40,20l-40,0l0,-120z" id="svg_15"/>
   <path d="m2680,-190c0,-13 -7,-20 -20,-20c-18,0 -20,-7 -20,-80c0,-73 2,-80 20,-80c13,0 20,-7 20,-20c0,-19 7,-20 100,-20c94,0 100,1 100,21c0,19 -5,20 -77,18c-73,-2 -78,-1 -81,19c-3,21 0,22 77,22l81,0l0,60c0,44 -4,60 -14,60c-7,0 -16,9 -19,20c-5,18 -14,20 -86,20c-74,0 -81,-2 -81,-20zm120,-60l0,-40l-40,0l-40,0l0,40l0,40l40,0l40,0l0,-40z" id="svg_16"/>
   <path d="m3440,-200c0,-5 -9,-10 -20,-10c-11,0 -20,-2 -20,-5c0,-3 9,-23 20,-45c11,-22 20,-42 20,-45c0,-3 -31,-5 -70,-5c-60,0 -70,3 -70,18c-1,13 -6,11 -25,-11c-30,-33 -30,-45 -6,-74c22,-27 31,-29 31,-8c0,12 15,15 75,15l74,0l26,45l27,45l-23,45c-21,42 -39,58 -39,35zm32,-44c14,-28 14,-37 4,-51c-11,-16 -15,-14 -34,19c-23,40 -28,61 -12,51c6,-3 10,-1 10,4c0,22 17,10 32,-23z" id="svg_17"/>
  </g>
 </g>
</svg>